<?xml version="1.0" encoding="iso-8859-1"?>
<!-- Generator: Adobe Illustrator 19.0.0, SVG Export Plug-In . SVG Version: 6.00 Build 0)  -->
<svg version="1.1" id="Layer_1" xmlns="http://www.w3.org/2000/svg" xmlns:xlink="http://www.w3.org/1999/xlink" x="0px" y="0px"
	 viewBox="0 0 504 504" style="enable-background:new 0 0 504 504;" xml:space="preserve">
<circle style="fill:#90DFAA;" cx="252" cy="252" r="252"/>
<path style="fill:#F1543F;" d="M252,129.6c-24-24.4-53.6-38.4-82-34.4c-52,6.8-98.4,76.4-63.2,138.4c30.8,54.4,145.2,176,145.2,176
	s114.4-121.6,145.2-176C432.4,171.6,386,102,334,95.2C305.6,91.2,276,105.2,252,129.6z"/>
<polygon style="fill:#2B3B4E;" points="35.6,260.8 66.8,301.6 35.6,342 100.4,342 100.4,260.8 "/>
<rect x="100.4" y="226.8" style="fill:#324A5E;" width="303.2" height="95.6"/>
<polygon style="fill:#2B3B4E;" points="437.2,301.6 468.4,261.2 403.6,261.2 403.6,342.4 468.4,342.4 "/>
<g>
	<path style="fill:#FFFFFF;" d="M154,301.6V248h12v42.8h22.8v10.8L154,301.6L154,301.6z"/>
	<path style="fill:#FFFFFF;" d="M240.8,294.4c-5.6,5.2-12,8-20,8s-14.4-2.8-20-8s-8-12-8-19.6c0-8,2.8-14.4,8-19.6
		c5.6-5.2,12-8,20-8s14.4,2.8,20,8c5.6,5.2,8,12,8,19.6C249.2,282.4,246.4,288.8,240.8,294.4z M236.8,274.4c0-4.8-1.6-8.8-4.4-12.4
		c-3.2-3.2-6.8-5.2-11.2-5.2s-8.4,1.6-11.2,5.2c-3.2,3.2-4.4,7.6-4.4,12.4s1.6,8.8,4.4,12c3.2,3.2,6.8,5.2,11.2,5.2
		s8.4-1.6,11.2-5.2C235.2,283.2,236.8,279.2,236.8,274.4z"/>
	<path style="fill:#FFFFFF;" d="M277.6,282l13.6-34H304l-21.6,53.6h-10L251.2,248H264L277.6,282z"/>
	<path style="fill:#FFFFFF;" d="M349.2,248v10.8h-26.8V270h24v10h-24v11.2H350v10.4h-39.6V248H349.2z"/>
</g>
<g>
</g>
<g>
</g>
<g>
</g>
<g>
</g>
<g>
</g>
<g>
</g>
<g>
</g>
<g>
</g>
<g>
</g>
<g>
</g>
<g>
</g>
<g>
</g>
<g>
</g>
<g>
</g>
<g>
</g>
</svg>
